<?xml version="1.0" encoding="UTF-8" standalone="no"?>
<!-- Created with Inkscape (http://www.inkscape.org/) -->

<svg
   width="47.5371mm"
   height="13.8821mm"
   viewBox="3.7856 3.6571 47.5371 13.8821"
   version="1.1"
   id="svg1"
   xmlns="http://www.w3.org/2000/svg"
   xmlns:svg="http://www.w3.org/2000/svg">
  <defs
     id="defs1" />
  <g
     id="layer1"
     transform="translate(-65.937866,-96.018002)">
    <rect
       style="fill:none;stroke-width:0.260731"
       id="rect1"
       width="55.070496"
       height="21.32205"
       x="65.937866"
       y="96.017998" />
    <g
       id="g6"
       transform="matrix(0.26458333,0,0,0.26458333,48.063001,-9.2713386)">
	<path
   id="path5_3_"
   class="st0"
   d="m 111.8,426.8 c 0,0 0,0 0,0 0.1,0 0.1,0 0,0 0.2,0.2 0.4,0.3 0.7,0.5 0.1,0.1 0.2,0.2 0.3,0.3 0,0 0.1,0.1 0.1,0.1 2.2,2 3.6,4.8 3.6,8 0,5.9 -4.8,10.7 -10.7,10.7 -3.7,0 -7,-1.9 -8.9,-4.7 v 21.1 h 36 v -36 z"
   style="fill:#5f6062" />

	<path
   id="path7_3_"
   class="st1"
   d="m 105.9,444.5 c 4.9,0 8.9,-4 8.9,-8.9 0,-4.9 -4,-8.9 -8.9,-8.9 -4.9,0 -8.9,4 -8.9,8.9 0,4.9 3.9,8.9 8.9,8.9"
   style="fill:#ee7c28" />

	<path
   id="path9_3_"
   class="st0"
   d="m 91.9,430.7 c 4.9,0 8.9,-4 8.9,-8.9 0,-4.9 -4,-8.9 -8.9,-8.9 -4.9,0 -8.9,4 -8.9,8.9 0,4.9 4.1,8.9 8.9,8.9"
   style="fill:#5f6062" />

	<path
   class="st0"
   d="m 241.8,435.8 v -1.1 h -3.7 v -7.9 h -1.3 v 9 z m -9.7,-3.4 H 229 l 1.5,-4.5 v 0 z m 2.5,3.4 -3.2,-9 h -1.5 l -3.2,9 h 1.3 l 0.8,-2.3 h 3.7 l 0.8,2.3 z m -10,0 v -9 h -1.2 v 7 0 l -4.1,-7 h -1.4 v 9 h 1.2 v -7 0 l 4.1,7 z m -10.3,-3.9 c 0,1.9 -0.8,2.9 -2.4,2.9 -1.6,0 -2.3,-1.1 -2.3,-2.9 v -1.3 c 0,-1.9 0.8,-2.9 2.4,-2.9 1.6,0 2.3,1.1 2.3,2.9 z m 1.4,-0.6 c 0,-2.7 -0.6,-4.7 -3.6,-4.7 -3.1,0 -3.8,2 -3.8,4.7 0,2.7 0.5,4.7 3.7,4.7 3,-0.1 3.7,-2 3.7,-4.7 m -9.6,-4.5 h -1.3 v 9 h 1.3 z m -3.2,1.1 v -1.1 h -6.5 v 1.1 h 2.6 v 7.9 h 1.3 v -7.9 z m -9.6,4.5 h -3.1 l 1.5,-4.5 v 0 z m 2.5,3.4 -3.2,-9 H 191 l -3.2,9 h 1.3 l 0.8,-2.3 h 3.7 l 0.8,2.3 z m -10.1,0 v -9 h -1.2 v 7 0 l -4.1,-7 H 179 v 9 h 1.2 v -7 0 l 4.1,7 z m -10.5,-6.4 c 0,1 -0.7,1.6 -2.1,1.6 h -1.3 v -3.2 h 1.5 c 1.3,0 1.9,0.6 1.9,1.6 m 1.8,6.4 -1.5,-3.3 c -0.3,-0.7 -0.8,-0.8 -0.8,-0.8 v 0 c 1.2,-0.3 1.9,-1.1 1.9,-2.3 0,-1.8 -1.2,-2.5 -3.1,-2.5 h -2.9 v 9 h 1.3 v -3.7 h 1.3 c 0.5,0 0.9,0.3 1.2,0.9 l 1.2,2.8 h 1.4 z m -8.9,0 v -1.1 h -3.7 v -3.1 h 3.4 v -1.1 h -3.4 v -2.7 h 3.7 v -1.1 H 163 v 9 h 5.1 z m -6.9,-7.9 v -1.1 h -6.5 v 1.1 h 2.6 v 7.9 h 1.3 v -7.9 z m -8.4,7.9 v -9 h -1.2 v 7 0 l -4.1,-7 h -1.4 v 9 h 1.2 v -7 0 l 4.1,7 z m -9.4,-9 h -1.3 v 9 h 1.3 z"
   id="path1-4"
   style="fill:#5f6062" />

	<path
   class="st2"
   d="m 249.2,448.8 -0.1,-1.1 c -0.6,0.4 -1.2,0.6 -2,0.6 -1.5,0 -2.5,-0.8 -2.5,-2.9 v -1.3 c 0,-1.9 0.8,-2.9 2.5,-2.9 0.7,0 1.3,0.2 1.9,0.5 l 0.1,-1.1 c -0.5,-0.2 -1.1,-0.4 -2,-0.4 -3.1,0 -3.7,2.2 -3.7,4.7 0,2.5 0.5,4.6 3.5,4.6 1,-0.1 1.7,-0.3 2.3,-0.7 m -8,-8.5 h -1.3 v 9 h 1.3 z m -3.1,1 v -1.1 h -6.4 v 1.1 h 2.6 v 7.9 h 1.3 v -7.9 z m -7.3,-1 h -1.4 l -2.3,4.7 v 0 l -2.3,-4.7 h -1.4 l 3.1,5.8 v 3.1 h 1.3 v -3.1 z m -7.2,8.9 v -1.1 H 220 v -7.9 h -1.3 v 9 z m -9.5,-3.3 h -3 l 1.5,-4.5 v 0 z m 2.4,3.3 -3.2,-9 h -1.5 l -3.2,9 h 1.3 l 0.8,-2.3 h 3.7 l 0.8,2.3 z m -9.8,0 v -9 h -1.2 v 7 0 l -4.1,-7 H 200 v 9 h 1.2 v -7 0 l 4.1,7 z m -11.2,-3.3 h -3 l 1.5,-4.5 v 0 z m 2.4,3.3 -3.2,-9 h -1.5 l -3.2,9 h 1.3 l 0.8,-2.3 h 3.7 l 0.8,2.3 z m -10.5,-3.8 c 0,1.9 -0.8,2.9 -2.3,2.9 -1.6,0 -2.3,-1.1 -2.3,-2.9 v -1.3 c 0,-1.9 0.8,-2.9 2.3,-2.9 1.6,0 2.3,1.1 2.3,2.9 z m 1.3,-0.7 c 0,-2.7 -0.5,-4.7 -3.6,-4.7 -3.1,0 -3.7,2 -3.7,4.7 0,2.7 0.5,4.7 3.6,4.7 3,0 3.7,-1.9 3.7,-4.7 m -9.4,4.5 v -9 H 178 v 3.8 h -4 v -3.8 h -1.3 v 9 h 1.3 v -4.1 h 4 v 4.1 z m -8.5,-0.4 -0.1,-1.1 c -0.6,0.4 -1.2,0.6 -2,0.6 -1.5,0 -2.5,-0.8 -2.5,-2.9 v -1.3 c 0,-1.9 0.8,-2.9 2.5,-2.9 0.7,0 1.3,0.2 1.9,0.5 l 0.1,-1.1 c -0.5,-0.2 -1.1,-0.4 -2,-0.4 -3.1,0 -3.7,2.2 -3.7,4.7 0,2.5 0.5,4.6 3.5,4.6 0.9,-0.1 1.6,-0.3 2.3,-0.7 m -6.7,-8.5 h -1.4 l -2.3,4.7 v 0 l -2.3,-4.7 h -1.4 l 3.1,5.8 v 3.1 h 1.3 v -3.1 z m -8.8,6.5 c 0,-1.4 -0.9,-2.2 -2.3,-2.7 l -0.3,-0.1 c -1,-0.4 -1.6,-0.8 -1.6,-1.5 0,-0.9 0.7,-1.3 1.8,-1.3 0.8,0 1.4,0.2 2,0.5 l 0.1,-1.1 c -0.6,-0.3 -1.2,-0.4 -2.2,-0.4 -1.9,0 -3,1 -3,2.4 0,1.5 0.9,2.2 2.3,2.7 l 0.3,0.1 c 0.9,0.3 1.7,0.8 1.7,1.6 0,0.8 -0.6,1.5 -2,1.5 -0.9,0 -1.7,-0.3 -2.3,-0.6 l -0.1,1.2 c 0.6,0.3 1.5,0.5 2.5,0.5 2,-0.2 3.1,-1.3 3.1,-2.8 m -8.7,-3.8 c 0,1.1 -0.5,1.8 -2.2,1.8 h -1.1 v -3.4 h 1.3 c 1.5,-0.1 2,0.4 2,1.6 m 1.4,-0.1 c 0,-1.9 -1.2,-2.7 -3.2,-2.7 h -2.7 v 9 h 1.3 v -3.4 h 1.2 c 2.2,0 3.4,-1 3.4,-2.9"
   id="path2-5"
   style="fill:#ef7926" />

	<path
   class="st0"
   d="M 214.4,453.7 H 213 l -2.3,4.7 v 0 l -2.3,-4.7 H 207 l 3.1,5.8 v 3.1 h 1.3 v -3.1 z m -8.4,1.1 v -1.1 h -6.4 v 1.1 h 2.6 v 7.9 h 1.3 v -7.9 z m -8.3,-1.1 h -1.3 v 9 h 1.3 z m -3.5,6.6 c 0,-1.4 -0.9,-2.2 -2.3,-2.7 l -0.4,-0.1 c -1,-0.4 -1.6,-0.8 -1.6,-1.5 0,-0.9 0.7,-1.3 1.8,-1.3 0.8,0 1.4,0.2 2,0.5 l 0.1,-1.1 c -0.6,-0.3 -1.2,-0.4 -2.2,-0.4 -1.9,0 -3,1 -3,2.4 0,1.5 0.9,2.2 2.3,2.7 l 0.4,0.1 c 1,0.3 1.7,0.8 1.7,1.6 0,0.8 -0.6,1.5 -2,1.5 -0.9,0 -1.7,-0.3 -2.3,-0.6 l -0.1,1.2 c 0.6,0.3 1.5,0.5 2.5,0.5 2,-0.2 3.1,-1.3 3.1,-2.8 m -9.1,-3.9 c 0,1 -0.7,1.6 -2,1.6 h -1.3 v -3.2 h 1.5 c 1.3,0 1.8,0.5 1.8,1.6 m 1.8,6.3 -1.5,-3.3 c -0.3,-0.7 -0.8,-0.8 -0.8,-0.8 v 0 c 1.2,-0.3 1.9,-1.1 1.9,-2.3 0,-1.8 -1.2,-2.5 -3.1,-2.5 h -2.9 v 9 h 1.3 V 459 h 1.3 c 0.5,0 0.9,0.3 1.1,0.9 l 1.2,2.8 z m -8.7,0 v -1.1 h -3.7 v -3.1 h 3.4 v -1.1 h -3.4 v -2.7 h 3.7 v -1.1 h -5 v 9 h 5 z m -6.9,-9 H 170 l -2.5,7.8 v 0 l -2.5,-7.8 h -1.4 l 3,9 h 1.5 z m -9.5,0 h -1.3 v 9 h 1.3 z m -3.9,9 v -9 h -1.2 v 7 0 l -4.1,-7 h -1.4 v 9 h 1.2 v -7 0 l 4.1,7 z m -9.3,-3 v -6 h -1.3 v 6 c 0,1.4 -0.6,2.1 -2,2.1 -1.3,0 -2,-0.8 -2,-2.1 v -6 H 142 v 6 c 0,2.3 1.1,3.2 3.2,3.2 2.2,0 3.4,-0.9 3.4,-3.2"
   id="path3-5"
   style="fill:#5f6062" />

	<path
   class="st0"
   d="m 240.1,462.8 -1.2,-2.8 c -0.2,-0.6 -0.7,-0.9 -1.2,-0.9 h -1.4 v 3.7 H 235 v -9 h 3 c 2,0 3.2,0.7 3.2,2.5 0,1.2 -0.8,2 -2,2.3 v 0 c 0,0 0.5,0.1 0.9,0.8 l 1.6,3.4 z m -2.2,-8 h -1.6 v 3.2 h 1.4 c 1.4,0 2.1,-0.6 2.1,-1.6 0,-1.1 -0.5,-1.6 -1.9,-1.6 z"
   id="path4-1"
   style="fill:#5f6062" />

	<polygon
   class="st0"
   points="232.5,461.7 228.8,461.7 228.8,458.6 232.2,458.6 232.2,457.5 228.8,457.5 228.8,454.8 232.5,454.8 232.5,453.7 227.5,453.7 227.5,462.7 232.5,462.7 "
   id="polygon4"
   style="fill:#5f6062" />

	<rect
   x="250"
   y="453.70001"
   class="st0"
   width="1.3"
   height="9"
   id="rect4"
   style="fill:#5f6062" />

	<polygon
   class="st0"
   points="260.4,453.7 259.2,453.7 259.2,460.7 255.1,453.7 253.7,453.7 253.7,462.7 255,462.7 254.9,455.7 259,462.7 260.4,462.7 "
   id="polygon5"
   style="fill:#5f6062" />

	<polygon
   class="st0"
   points="248.3,461.7 244.6,461.6 244.6,453.7 243.3,453.7 243.3,462.7 248.3,462.7 "
   id="polygon6-7"
   style="fill:#5f6062" />

	<path
   class="st0"
   d="m 221.9,462.7 h -2.8 v -9 h 2.9 c 1.6,0 3.1,0.4 3.1,2.2 0,1.3 -0.9,1.8 -1.7,2 v 0 c 0.7,0.1 1.9,0.5 1.9,2.1 0,1.8 -1,2.7 -3.4,2.7 z m 0,-8 h -1.4 v 2.8 h 1.3 c 1.3,0 1.9,-0.5 1.9,-1.5 0,-0.9 -0.7,-1.3 -1.8,-1.3 z m 0,3.8 h -1.4 v 3.2 h 1.3 c 1.4,0 2.2,-0.5 2.2,-1.6 0,-1.1 -0.8,-1.6 -2.1,-1.6 z"
   id="path6-1"
   style="fill:#5f6062" />

</g>
  </g>
</svg>
